<svg width="260" height="18" viewBox="0 0 260 18" fill="none" xmlns="http://www.w3.org/2000/svg">
<path d="M26.0166 16.8323H11.1494L21.8584 7.68583C22.3652 7.25298 22.4263 6.4911 21.9941 5.98368C21.5581 5.47175 20.7873 5.41505 20.2803 5.85673L7.68066 16.8323H0L19.5742 0.323524H26.0166V16.8323ZM22.1748 15.0345C22.3166 14.345 21.5096 13.863 20.9697 14.3147L17.9639 16.8313H21.8047L22.1748 15.0345Z" fill="#736F6D"/>
<path d="M257.579 17.0859C256.172 17.0859 255.158 16.1175 255.158 14.7571C255.158 13.3967 256.172 12.4282 257.579 12.4282C258.985 12.4282 260 13.3967 260 14.7571C260 16.1175 258.985 17.0859 257.579 17.0859Z" fill="#736F6D"/>
<path d="M251.581 16.8323H246.716V4.31191H241.551V0.322914H256.746V4.31191H251.581V16.8323Z" fill="#736F6D"/>
<path d="M230.386 16.8323H225.521V0.322914H233.845C237.88 0.322914 240.555 2.58258 240.555 5.94902C240.555 8.64678 238.802 10.5375 236.404 10.9756L236.22 11.0217L241.085 16.8323H235.667L231.562 11.3907H230.386V16.8323ZM230.386 3.8277V8.23174H232.992C234.537 8.23174 235.69 7.40166 235.69 6.01819C235.69 4.65778 234.537 3.8277 232.992 3.8277H230.386Z" fill="#736F6D"/>
<path d="M223.528 16.8323H210.592V0.322914H223.297V4.15051H215.296V6.91744H222.859V10.0764H215.296V13.0047H223.528V16.8323Z" fill="#736F6D"/>
<path d="M198.975 16.8323H194.133V0.322914H201.788C206.123 0.322914 208.821 2.62869 208.821 6.17959C208.821 9.7305 206.1 12.0363 201.742 12.0363H198.975V16.8323ZM198.975 3.8277V8.53149H201.234C202.872 8.53149 203.955 7.60918 203.955 6.17959C203.955 4.75001 202.872 3.8277 201.234 3.8277H198.975Z" fill="#736F6D"/>
<path d="M180.034 16.8323H174.477L179.619 8.11645L174.569 0.322914H180.103L183.239 5.58009H183.469L186.628 0.322914H192.278L186.951 8.11645L192.347 16.8323H186.698L183.469 10.8373H183.239L180.034 16.8323Z" fill="#736F6D"/>
<path d="M173.337 16.8323H160.401V0.322914H173.106V4.15051H165.105V6.91744H172.668V10.0764H165.105V13.0047H173.337V16.8323Z" fill="#736F6D"/>
<path d="M148.091 16.8323H143.226V4.31191H138.061V0.322914H153.256V4.31191H148.091V16.8323Z" fill="#736F6D"/>
<path d="M129.005 17.1781C123.794 17.1781 120.012 13.6963 120.012 8.5775C120.012 3.45867 123.794 0 129.005 0C133.432 0 136.914 2.62859 137.421 6.5023L132.902 6.98651C132.533 5.23412 130.965 3.96594 129.143 3.96594C126.607 3.96594 124.877 5.81056 124.877 8.5775C124.901 11.3444 126.63 13.1891 129.12 13.1891C130.919 13.1891 132.533 11.9439 132.925 10.2146L137.444 10.7449C137.029 14.5725 133.524 17.1781 129.005 17.1781Z" fill="#736F6D"/>
<path d="M118.664 16.8323H105.729V0.322914H118.434V4.15051H110.433V6.91744H117.996V10.0764H110.433V13.0047H118.664V16.8323Z" fill="#736F6D"/>
<path d="M99.0259 16.8323H94.1607V4.31191H88.9957V0.322914H104.191V4.31191H99.0259V16.8323Z" fill="#736F6D"/>
<path d="M87.4462 16.8323H82.581V0.322914H87.4462V16.8323Z" fill="#736F6D"/>
<path d="M69.4323 16.8323H64.5671V0.322914H69.4323V6.41017H75.0815V0.322914H79.9467V16.8323H75.0815V10.2147H69.4323V16.8323Z" fill="#736F6D"/>
<path d="M54.112 17.1781C48.9009 17.1781 45.1194 13.6963 45.1194 8.5775C45.1194 3.45867 48.9009 0 54.112 0C58.5391 0 62.0208 2.62859 62.5281 6.5023L58.0087 6.98651C57.6398 5.23412 56.0719 3.96594 54.2503 3.96594C51.714 3.96594 49.9846 5.81056 49.9846 8.5775C50.0077 11.3444 51.737 13.1891 54.2273 13.1891C56.0258 13.1891 57.6398 11.9439 58.0318 10.2146L62.5511 10.7449C62.1361 14.5725 58.6313 17.1781 54.112 17.1781Z" fill="#736F6D"/>
<path d="M33.5171 16.8323H28.6519V0.322914H36.9758C41.0109 0.322914 43.6856 2.58258 43.6856 5.94902C43.6856 8.64678 41.9332 10.5375 39.5352 10.9756L39.3507 11.0217L44.2159 16.8323H38.7973L34.6931 11.3907H33.5171V16.8323ZM33.5171 3.8277V8.23174H36.1226C37.6675 8.23174 38.8204 7.40166 38.8204 6.01819C38.8204 4.65778 37.6675 3.8277 36.1226 3.8277H33.5171Z" fill="#736F6D"/>
</svg>
