<svg width="38" height="38" viewBox="0 0 38 38" fill="none" xmlns="http://www.w3.org/2000/svg">
<path d="M34.3412 28.6638C34.3412 29.2253 34.2164 29.8024 33.9513 30.3638C33.6861 30.9253 33.343 31.4556 32.8907 31.9547C32.1264 32.797 31.2842 33.4053 30.3328 33.7952C29.397 34.1851 28.3831 34.3879 27.2914 34.3879C25.7005 34.3879 24.0004 34.0136 22.2067 33.2493C20.4131 32.485 18.6194 31.4556 16.8414 30.1611C15.0477 28.8509 13.3476 27.4004 11.7255 25.7939C10.119 24.1718 8.66852 22.4718 7.37397 20.6937C6.09501 18.9156 5.06561 17.1376 4.31695 15.3751C3.5683 13.5971 3.19397 11.897 3.19397 10.2749C3.19397 9.2143 3.38113 8.20049 3.75546 7.26467C4.12979 6.31325 4.72248 5.43982 5.54912 4.65997C6.54733 3.67736 7.63912 3.19385 8.7933 3.19385C9.23001 3.19385 9.66673 3.28743 10.0567 3.47459C10.4622 3.66176 10.8209 3.9425 11.1017 4.34803L14.7202 9.44825C15.0009 9.83818 15.2037 10.1969 15.344 10.54C15.4844 10.8676 15.5624 11.1951 15.5624 11.4915C15.5624 11.8658 15.4532 12.2401 15.2349 12.5988C15.0321 12.9576 14.7358 13.3319 14.3614 13.7062L13.1761 14.9384C13.0045 15.11 12.9265 15.3127 12.9265 15.5623C12.9265 15.6871 12.9421 15.7962 12.9733 15.921C13.0201 16.0458 13.0669 16.1394 13.0981 16.233C13.3788 16.7477 13.8623 17.4183 14.5486 18.2294C15.2505 19.0404 15.9991 19.8671 16.8102 20.6937C17.6524 21.5203 18.4634 22.2846 19.2901 22.9865C20.1011 23.6727 20.7718 24.1406 21.3021 24.4214C21.3801 24.4526 21.4737 24.4994 21.5828 24.5462C21.7076 24.593 21.8324 24.6085 21.9728 24.6085C22.2379 24.6085 22.4407 24.515 22.6123 24.3434L23.7976 23.1736C24.1876 22.7837 24.5619 22.4874 24.9206 22.3002C25.2793 22.0818 25.6381 21.9727 26.028 21.9727C26.3243 21.9727 26.6363 22.035 26.9794 22.1754C27.3226 22.3158 27.6813 22.5186 28.0712 22.7837L33.2338 26.449C33.6393 26.7297 33.9201 27.0573 34.0917 27.4472C34.2476 27.8371 34.3412 28.2271 34.3412 28.6638Z" stroke="white" stroke-width="2.33955" stroke-miterlimit="10"/>
</svg>
