<svg width="1200" height="80" viewBox="0 0 1200 80" fill="none" xmlns="http://www.w3.org/2000/svg">
<path d="M120.076 77.686H100.636L102.345 69.3921C103.001 66.2087 99.2742 63.9826 96.7822 66.0688L82.9102 77.686H51.46L100.886 35.4722C103.225 33.4743 103.504 29.9596 101.51 27.6177C99.4975 25.2552 95.9436 24.9906 93.6035 27.0288L35.4502 77.686H0L90.3428 1.49365H120.076V77.686Z" fill="white"/>
<path d="M1188.83 78.8583C1182.33 78.8583 1177.65 74.3886 1177.65 68.1098C1177.65 61.831 1182.33 57.3613 1188.83 57.3613C1195.32 57.3613 1200 61.831 1200 68.1098C1200 74.3886 1195.32 78.8583 1188.83 78.8583Z" fill="white"/>
<path d="M1161.14 77.6874H1138.69V19.901H1114.85V1.49023H1184.98V19.901H1161.14V77.6874Z" fill="white"/>
<path d="M1063.32 77.6874H1040.87V1.49023H1079.29C1097.91 1.49023 1110.25 11.9195 1110.25 27.4569C1110.25 39.9081 1102.17 48.6346 1091.1 50.6566L1090.25 50.8694L1112.7 77.6874H1087.69L1068.75 52.5721H1063.32V77.6874ZM1063.32 17.6662V37.9925H1075.35C1082.48 37.9925 1087.8 34.1614 1087.8 27.7761C1087.8 21.4973 1082.48 17.6662 1075.35 17.6662H1063.32Z" fill="white"/>
<path d="M1031.67 77.6874H971.964V1.49023H1030.6V19.1561H993.674V31.9265H1028.58V46.5061H993.674V60.0216H1031.67V77.6874Z" fill="white"/>
<path d="M918.345 77.6874H895.997V1.49023H931.329C951.336 1.49023 963.787 12.1323 963.787 28.5211C963.787 44.9098 951.229 55.5519 931.116 55.5519H918.345V77.6874ZM918.345 17.6662V39.376H928.775C936.33 39.376 941.332 35.1191 941.332 28.5211C941.332 21.923 936.33 17.6662 928.775 17.6662H918.345Z" fill="white"/>
<path d="M830.925 77.6874H805.278L829.01 37.4604L805.704 1.49023H831.245L845.718 25.7541H846.782L861.362 1.49023H887.435L862.852 37.4604L887.754 77.6874H861.681L846.782 50.018H845.718L830.925 77.6874Z" fill="white"/>
<path d="M800.015 77.6874H740.313V1.49023H798.951V19.1561H762.023V31.9265H796.929V46.5061H762.023V60.0216H800.015V77.6874Z" fill="white"/>
<path d="M683.498 77.6874H661.043V19.901H637.205V1.49023H707.336V19.901H683.498V77.6874Z" fill="white"/>
<path d="M595.407 79.2833C571.356 79.2833 553.903 63.2138 553.903 39.5885C553.903 15.9631 571.356 0 595.407 0C615.839 0 631.909 12.1319 634.25 30.0106L613.392 32.2454C611.689 24.1575 604.452 18.3043 596.045 18.3043C584.339 18.3043 576.357 26.818 576.357 39.5885C576.464 52.3589 584.445 60.8726 595.939 60.8726C604.24 60.8726 611.689 55.1259 613.498 47.1443L634.357 49.592C632.441 67.2578 616.265 79.2833 595.407 79.2833Z" fill="white"/>
<path d="M547.682 77.6874H487.98V1.49023H546.618V19.1561H509.69V31.9265H544.596V46.5061H509.69V60.0216H547.682V77.6874Z" fill="white"/>
<path d="M457.043 77.6874H434.588V19.901H410.75V1.49023H480.881V19.901H457.043V77.6874Z" fill="white"/>
<path d="M403.598 77.6874H381.143V1.49023H403.598V77.6874Z" fill="white"/>
<path d="M320.457 77.6874H298.002V1.49023H320.457V29.5853H346.53V1.49023H368.985V77.6874H346.53V47.1447H320.457V77.6874Z" fill="white"/>
<path d="M249.748 79.2833C225.697 79.2833 208.244 63.2138 208.244 39.5885C208.244 15.9631 225.697 0 249.748 0C270.18 0 286.25 12.1319 288.591 30.0106L267.733 32.2454C266.03 24.1575 258.793 18.3043 250.386 18.3043C238.68 18.3043 230.698 26.818 230.698 39.5885C230.805 52.3589 238.786 60.8726 250.28 60.8726C258.58 60.8726 266.03 55.1259 267.839 47.1443L288.698 49.592C286.782 67.2578 270.606 79.2833 249.748 79.2833Z" fill="white"/>
<path d="M154.694 77.6874H132.24V1.49023H170.657C189.281 1.49023 201.626 11.9195 201.626 27.4569C201.626 39.9081 193.538 48.6346 182.47 50.6566L181.619 50.8694L204.074 77.6874H179.065L160.122 52.5721H154.694V77.6874ZM154.694 17.6662V37.9925H166.72C173.85 37.9925 179.171 34.1614 179.171 27.7761C179.171 21.4973 173.85 17.6662 166.72 17.6662H154.694Z" fill="white"/>
</svg>
