<svg width="451" height="227" viewBox="0 0 451 227" fill="none" xmlns="http://www.w3.org/2000/svg">
<path d="M152.731 226.135H105.215L105.218 226.132H152.735L152.731 226.135ZM356.373 226.132H298.674L303.746 201.517C305.693 192.068 294.632 185.462 287.236 191.655L246.066 226.132H152.735L299.422 100.85C306.364 94.9203 307.192 84.4886 301.272 77.5381C295.3 70.5258 284.752 69.7401 277.807 75.79L105.218 226.132H0L268.128 0H356.373V226.132Z" fill="white"/>
<path d="M385.936 195.183C385.936 176.864 398.886 164.546 418.468 164.546C437.734 164.546 451 176.864 451 195.183C451 213.818 437.734 226.136 418.468 226.136C398.886 226.136 385.936 213.818 385.936 195.183Z" fill="white"/>
</svg>
