<svg width="1440" height="700" viewBox="0 0 1440 700" fill="none" xmlns="http://www.w3.org/2000/svg">
<mask id="mask0_4_766" style="mask-type:alpha" maskUnits="userSpaceOnUse" x="0" y="0" width="1440" height="700">
<path d="M0 0H1440V620C1440 664.183 1404.18 700 1360 700H80C35.8173 700 0 664.183 0 620V0Z" fill="#AAA59A"/>
</mask>
<g mask="url(#mask0_4_766)">
<path d="M0 0H1440V620C1440 664.183 1404.18 700 1360 700H80C35.8173 700 0 664.183 0 620V0Z" fill="#333333"/>
<g opacity="0.1">
<path d="M901.983 699.997H775.279L775.288 699.989H901.992L901.983 699.997ZM1445 699.989H1291.14L1304.67 634.352C1309.86 609.157 1280.37 591.541 1260.65 608.056L1150.86 699.989H901.992L1293.14 365.919C1311.65 350.108 1313.86 322.292 1298.07 303.758C1282.15 285.059 1254.02 282.964 1235.5 299.097L775.288 699.989H494.719L1209.69 97H1445V699.989Z" fill="#736F6D"/>
</g>
</g>
</svg>
